<svg width="1240" height="1024" viewBox="0 0 1240 1024" fill="none" xmlns="http://www.w3.org/2000/svg">
<mask id="mask0_29_480" style="mask-type:alpha" maskUnits="userSpaceOnUse" x="0" y="0" width="1240" height="1024">
<rect width="1240" height="1024" rx="40" fill="#0C1229"/>
</mask>
<g mask="url(#mask0_29_480)">
<g opacity="0.56" filter="url(#filter0_f_29_480)">
<ellipse cx="40" cy="40" rx="160" ry="200" fill="#424F7E"/>
</g>
<g opacity="0.8">
<path opacity="0.5" d="M540 990L540.636 991.364L542 992L540.636 992.636L540 994L539.364 992.636L538 992L539.364 991.364L540 990Z" fill="#E1E6FB"/>
<path d="M672 955L672.636 956.364L674 957L672.636 957.636L672 959L671.364 957.636L670 957L671.364 956.364L672 955Z" fill="#E1E6FB"/>
<path opacity="0.4" d="M726 945L726.636 946.364L728 947L726.636 947.636L726 949L725.364 947.636L724 947L725.364 946.364L726 945Z" fill="#E1E6FB"/>
<path opacity="0.4" d="M944 892L944.636 893.364L946 894L944.636 894.636L944 896L943.364 894.636L942 894L943.364 893.364L944 892Z" fill="#E1E6FB"/>
<path opacity="0.4" d="M858 829L858.636 830.364L860 831L858.636 831.636L858 833L857.364 831.636L856 831L857.364 830.364L858 829Z" fill="#E1E6FB"/>
<path opacity="0.8" d="M1028 696L1028.64 697.364L1030 698L1028.64 698.636L1028 700L1027.36 698.636L1026 698L1027.36 697.364L1028 696Z" fill="#E1E6FB"/>
<path opacity="0.66" d="M963 682L963.636 683.364L965 684L963.636 684.636L963 686L962.364 684.636L961 684L962.364 683.364L963 682Z" fill="#E1E6FB"/>
<path opacity="0.8" d="M700 659L700.636 660.364L702 661L700.636 661.636L700 663L699.364 661.636L698 661L699.364 660.364L700 659Z" fill="#E1E6FB"/>
<path opacity="0.4" d="M821 648L821.636 649.364L823 650L821.636 650.636L821 652L820.364 650.636L819 650L820.364 649.364L821 648Z" fill="#E1E6FB"/>
<path d="M606 533L606.636 534.364L608 535L606.636 535.636L606 537L605.364 535.636L604 535L605.364 534.364L606 533Z" fill="#E1E6FB"/>
<path d="M322 503L322.636 504.364L324 505L322.636 505.636L322 507L321.364 505.636L320 505L321.364 504.364L322 503Z" fill="#E1E6FB"/>
<path d="M709 467L709.636 468.364L711 469L709.636 469.636L709 471L708.364 469.636L707 469L708.364 468.364L709 467Z" fill="#E1E6FB"/>
<path opacity="0.8" d="M340 420L340.636 421.364L342 422L340.636 422.636L340 424L339.364 422.636L338 422L339.364 421.364L340 420Z" fill="#E1E6FB"/>
<path d="M500 411L500.636 412.364L502 413L500.636 413.636L500 415L499.364 413.636L498 413L499.364 412.364L500 411Z" fill="#E1E6FB"/>
<path opacity="0.7" d="M64 400L64.6364 401.364L66 402L64.6364 402.636L64 404L63.3636 402.636L62 402L63.3636 401.364L64 400Z" fill="#E1E6FB"/>
<path opacity="0.8" d="M650 368L650.636 369.364L652 370L650.636 370.636L650 372L649.364 370.636L648 370L649.364 369.364L650 368Z" fill="#E1E6FB"/>
<path d="M310 335L310.636 336.364L312 337L310.636 337.636L310 339L309.364 337.636L308 337L309.364 336.364L310 335Z" fill="#E1E6FB"/>
<path d="M999 325L999.636 326.364L1001 327L999.636 327.636L999 329L998.364 327.636L997 327L998.364 326.364L999 325Z" fill="#E1E6FB"/>
<path opacity="0.6" d="M1204 324L1204.64 325.364L1206 326L1204.64 326.636L1204 328L1203.36 326.636L1202 326L1203.36 325.364L1204 324Z" fill="#E1E6FB"/>
<path opacity="0.4" d="M1114 306L1114.64 307.364L1116 308L1114.64 308.636L1114 310L1113.36 308.636L1112 308L1113.36 307.364L1114 306Z" fill="#E1E6FB"/>
<path opacity="0.5" d="M779 304L779.636 305.364L781 306L779.636 306.636L779 308L778.364 306.636L777 306L778.364 305.364L779 304Z" fill="#E1E6FB"/>
<path opacity="0.4" d="M995 290L995.636 291.364L997 292L995.636 292.636L995 294L994.364 292.636L993 292L994.364 291.364L995 290Z" fill="#E1E6FB"/>
<path opacity="0.4" d="M778 232L778.636 233.364L780 234L778.636 234.636L778 236L777.364 234.636L776 234L777.364 233.364L778 232Z" fill="#E1E6FB"/>
<path opacity="0.66" d="M1138 202L1138.64 203.364L1140 204L1138.64 204.636L1138 206L1137.36 204.636L1136 204L1137.36 203.364L1138 202Z" fill="#E1E6FB"/>
<path opacity="0.8" d="M675 152L675.636 153.364L677 154L675.636 154.636L675 156L674.364 154.636L673 154L674.364 153.364L675 152Z" fill="#E1E6FB"/>
<path opacity="0.56" d="M549 142L549.636 143.364L551 144L549.636 144.636L549 146L548.364 144.636L547 144L548.364 143.364L549 142Z" fill="#E1E6FB"/>
<path opacity="0.4" d="M480 122L480.636 123.364L482 124L480.636 124.636L480 126L479.364 124.636L478 124L479.364 123.364L480 122Z" fill="#E1E6FB"/>
<path opacity="0.48" d="M850 108L850.636 109.364L852 110L850.636 110.636L850 112L849.364 110.636L848 110L849.364 109.364L850 108Z" fill="#E1E6FB"/>
<path d="M482 98L482.636 99.3636L484 100L482.636 100.636L482 102L481.364 100.636L480 100L481.364 99.3636L482 98Z" fill="#E1E6FB"/>
<path d="M880 92L880.636 93.3636L882 94L880.636 94.6364L880 96L879.364 94.6364L878 94L879.364 93.3636L880 92Z" fill="#E1E6FB"/>
<path opacity="0.66" d="M730 41L730.636 42.3636L732 43L730.636 43.6364L730 45L729.364 43.6364L728 43L729.364 42.3636L730 41Z" fill="#E1E6FB"/>
</g>
<g opacity="0.88">
<path opacity="0.5" d="M864 981L865.131 983.869L868 985L865.131 986.131L864 989L862.869 986.131L860 985L862.869 983.869L864 981Z" fill="#E1E6FB"/>
<path d="M193 838L194.131 840.869L197 842L194.131 843.131L193 846L191.869 843.131L189 842L191.869 840.869L193 838Z" fill="#E1E6FB"/>
<path opacity="0.8" d="M944 633L945.131 635.869L948 637L945.131 638.131L944 641L942.869 638.131L940 637L942.869 635.869L944 633Z" fill="#E1E6FB"/>
<path d="M334 531L335.131 533.869L338 535L335.131 536.131L334 539L332.869 536.131L330 535L332.869 533.869L334 531Z" fill="#E1E6FB"/>
<path d="M1124 528L1125.13 530.869L1128 532L1125.13 533.131L1124 536L1122.87 533.131L1120 532L1122.87 530.869L1124 528Z" fill="#E1E6FB"/>
<path d="M197 440L198.131 442.869L201 444L198.131 445.131L197 448L195.869 445.131L193 444L195.869 442.869L197 440Z" fill="#E1E6FB"/>
<path d="M932 424L933.131 426.869L936 428L933.131 429.131L932 432L930.869 429.131L928 428L930.869 426.869L932 424Z" fill="#E1E6FB"/>
<path opacity="0.8" d="M924 237L925.131 239.869L928 241L925.131 242.131L924 245L922.869 242.131L920 241L922.869 239.869L924 237Z" fill="#E1E6FB"/>
<path opacity="0.66" d="M176 41L177.131 43.8686L180 45L177.131 46.1314L176 49L174.869 46.1314L172 45L174.869 43.8686L176 41Z" fill="#E1E6FB"/>
<path d="M1108 38L1109.13 40.8686L1112 42L1109.13 43.1314L1108 46L1106.87 43.1314L1104 42L1106.87 40.8686L1108 38Z" fill="#E1E6FB"/>
</g>
<circle opacity="0.56" cx="1248" cy="888" r="280" fill="url(#paint0_radial_29_480)" fill-opacity="0.11"/>
<mask id="mask1_29_480" style="mask-type:alpha" maskUnits="userSpaceOnUse" x="968" y="608" width="560" height="560">
<circle cx="1248" cy="888" r="280" fill="url(#paint1_radial_29_480)"/>
</mask>
<g mask="url(#mask1_29_480)">
<g filter="url(#filter1_f_29_480)">
<path d="M1097.93 661.511C1194.32 605.945 1313.97 627.086 1386 705.967C1314.7 621.899 1191.26 598.126 1092.34 655.157C981.088 719.296 942.97 861.348 1007.2 972.44C1015.79 987.288 1025.77 1000.83 1036.88 1013C1027.99 1002.52 1019.91 991.107 1012.79 978.794C948.563 867.703 986.681 725.65 1097.93 661.511Z" fill="#7381BA" fill-opacity="0.48"/>
</g>
<g opacity="0.32" filter="url(#filter2_f_29_480)">
<path d="M1117.93 681.511C1214.32 625.945 1333.97 647.086 1406 725.967C1334.7 641.899 1211.26 618.126 1112.34 675.157C1001.09 739.296 962.97 881.348 1027.2 992.44C1035.79 1007.29 1045.77 1020.83 1056.88 1033C1047.99 1022.52 1039.91 1011.11 1032.79 998.794C968.563 887.703 1006.68 745.65 1117.93 681.511Z" fill="#7381BA"/>
</g>
<g filter="url(#filter3_f_29_480)">
<path d="M1097.93 661.511C1194.32 605.945 1313.97 627.086 1386 705.967C1314.7 621.899 1191.26 598.126 1092.34 655.157C981.088 719.296 942.97 861.348 1007.2 972.44C1015.79 987.288 1025.77 1000.83 1036.88 1013C1027.99 1002.52 1019.91 991.107 1012.79 978.794C948.563 867.703 986.681 725.65 1097.93 661.511Z" fill="#7381BA" fill-opacity="0.2"/>
</g>
</g>
<g opacity="0.66">
<path opacity="0.88" d="M655 934L656.485 938.515L661 940L656.485 941.485L655 946L653.515 941.485L649 940L653.515 938.515L655 934Z" fill="#E1E6FB"/>
<path d="M450 667L451.485 671.515L456 673L451.485 674.485L450 679L448.515 674.485L444 673L448.515 671.515L450 667Z" fill="#E1E6FB"/>
<path opacity="0.88" d="M828 616L829.485 620.515L834 622L829.485 623.485L828 628L826.515 623.485L822 622L826.515 620.515L828 616Z" fill="#E1E6FB"/>
<path d="M823 524L824.485 528.515L829 530L824.485 531.485L823 536L821.515 531.485L817 530L821.515 528.515L823 524Z" fill="#E1E6FB"/>
<path d="M84 420L85.4849 424.515L90 426L85.4849 427.485L84 432L82.5151 427.485L78 426L82.5151 424.515L84 420Z" fill="#E1E6FB"/>
<path d="M440 154L441.485 158.515L446 160L441.485 161.485L440 166L438.515 161.485L434 160L438.515 158.515L440 154Z" fill="#E1E6FB"/>
<path d="M866 115L867.485 119.515L872 121L867.485 122.485L866 127L864.515 122.485L860 121L864.515 119.515L866 115Z" fill="#E1E6FB"/>
</g>
</g>
<defs>
<filter id="filter0_f_29_480" x="-564" y="-604" width="1208" height="1288" filterUnits="userSpaceOnUse" color-interpolation-filters="sRGB">
<feFlood flood-opacity="0" result="BackgroundImageFix"/>
<feBlend mode="normal" in="SourceGraphic" in2="BackgroundImageFix" result="shape"/>
<feGaussianBlur stdDeviation="222" result="effect1_foregroundBlur_29_480"/>
</filter>
<filter id="filter1_f_29_480" x="936" y="584" width="490" height="469" filterUnits="userSpaceOnUse" color-interpolation-filters="sRGB">
<feFlood flood-opacity="0" result="BackgroundImageFix"/>
<feBlend mode="normal" in="SourceGraphic" in2="BackgroundImageFix" result="shape"/>
<feGaussianBlur stdDeviation="20" result="effect1_foregroundBlur_29_480"/>
</filter>
<filter id="filter2_f_29_480" x="916" y="564" width="570" height="549" filterUnits="userSpaceOnUse" color-interpolation-filters="sRGB">
<feFlood flood-opacity="0" result="BackgroundImageFix"/>
<feBlend mode="normal" in="SourceGraphic" in2="BackgroundImageFix" result="shape"/>
<feGaussianBlur stdDeviation="40" result="effect1_foregroundBlur_29_480"/>
</filter>
<filter id="filter3_f_29_480" x="960" y="608" width="442" height="421" filterUnits="userSpaceOnUse" color-interpolation-filters="sRGB">
<feFlood flood-opacity="0" result="BackgroundImageFix"/>
<feBlend mode="normal" in="SourceGraphic" in2="BackgroundImageFix" result="shape"/>
<feGaussianBlur stdDeviation="8" result="effect1_foregroundBlur_29_480"/>
</filter>
<radialGradient id="paint0_radial_29_480" cx="0" cy="0" r="1" gradientUnits="userSpaceOnUse" gradientTransform="translate(1248 888) rotate(-90) scale(280 280)">
<stop offset="0.588542" stop-color="#0C1229" stop-opacity="0"/>
<stop offset="1" stop-color="#424F7E"/>
</radialGradient>
<radialGradient id="paint1_radial_29_480" cx="0" cy="0" r="1" gradientUnits="userSpaceOnUse" gradientTransform="translate(1248 888) rotate(-90) scale(280)">
<stop offset="0.553571" stop-color="#0C1229"/>
<stop offset="1" stop-color="#424F7E"/>
</radialGradient>
</defs>
</svg>
