<svg width="24" height="24" viewBox="0 0 24 24" fill="none" xmlns="http://www.w3.org/2000/svg">
<g opacity="0.66">
<path d="M19.625 18.965C20.496 17.895 21 16.562 21 15V14.464C20.9941 12.8293 20.5167 11.2311 19.625 9.861C17.597 6.707 14.468 4.225 10.711 2.795L8.625 2L9.188 5C9.476 7.01 8.324 8.948 6.375 10C4.338 11.1 3 12.794 3 14.912V15C3 17 4.5 19 6 20" stroke="#E1E6FB" strokeWidth="2" strokeLinecap="round" strokeLinejoin="round"/>
<path d="M12 22C10.343 22 9 20.3879 9 18.4C9 16.825 10.016 15.5639 10.91 14.4085L12 13L13.09 14.4085C13.984 15.565 15 16.825 15 18.4C15 20.3879 13.657 22 12 22Z" stroke="#599CFF" strokeWidth="2" strokeLinecap="round" strokeLinejoin="round"/>
</g>
</svg>
