<svg width="24" height="24" viewBox="0 0 24 24" fill="none" xmlns="http://www.w3.org/2000/svg">
<g opacity="0.66">
<path d="M5 6.00003L7 11M13 17L18 19" stroke="#777D99" stroke-width="2" stroke-linecap="round" stroke-linejoin="round"/>
<path d="M15 9L18 6" stroke="#777D99" stroke-width="2" stroke-linecap="round" stroke-linejoin="round"/>
<path d="M4.5 6C5.32843 6 6 5.32843 6 4.5C6 3.67157 5.32843 3 4.5 3C3.67157 3 3 3.67157 3 4.5C3 5.32843 3.67157 6 4.5 6Z" stroke="#777D99" stroke-width="2" stroke-linecap="round" stroke-linejoin="round"/>
<path d="M19.5 6C20.3284 6 21 5.32843 21 4.5C21 3.67157 20.3284 3 19.5 3C18.6716 3 18 3.67157 18 4.5C18 5.32843 18.6716 6 19.5 6Z" stroke="#777D99" stroke-width="2" stroke-linecap="round" stroke-linejoin="round"/>
<path d="M19.5 21C20.3284 21 21 20.3284 21 19.5C21 18.6716 20.3284 18 19.5 18C18.6716 18 18 18.6716 18 19.5C18 20.3284 18.6716 21 19.5 21Z" stroke="#777D99" stroke-width="2" stroke-linecap="round" stroke-linejoin="round"/>
<path d="M8 21C10.7614 21 13 18.7614 13 16C13 13.2386 10.7614 11 8 11C5.23858 11 3 13.2386 3 16C3 18.7614 5.23858 21 8 21Z" stroke="#777D99" stroke-width="2" stroke-linecap="round" stroke-linejoin="round"/>
</g>
</svg>
