<svg width="16" height="16" viewBox="0 0 16 16" fill="none" xmlns="http://www.w3.org/2000/svg">
<path d="M5.96083 15.5057C5.96083 15.711 5.85294 15.9384 5.58309 16H11.3831C11.1297 15.9325 11.0279 15.7052 11.0279 15.5057C11.0279 15.1544 11.0406 14.0357 11.0406 12.6438C11.0406 11.6681 10.7223 11.0437 10.3531 10.7185C12.6193 10.4583 15 9.57369 15 5.58002C15 4.43525 14.6053 3.51163 13.956 2.78314C14.0579 2.52297 14.4144 1.45625 13.8542 0.0252952C13.8542 0.0252952 13.0012 -0.260896 11.0533 1.09201C10.2385 0.857853 9.3728 0.740775 8.50707 0.740775C7.64135 0.740775 6.77563 0.857853 5.96083 1.09201C4.01295 -0.247887 3.15996 0.0252952 3.15996 0.0252952C2.59979 1.45625 2.95626 2.52297 3.05811 2.78314C2.40882 3.51163 2.01415 4.44826 2.01415 5.58002C2.01415 9.56068 4.38216 10.4583 6.64832 10.7185C6.3555 10.9786 6.08814 11.4339 5.99902 12.1104C5.41339 12.3836 3.9493 12.8259 3.03265 11.2518C2.84168 10.9396 2.26877 10.1721 1.46671 10.1851C0.613715 10.1981 1.12296 10.6794 1.47944 10.8746C1.9123 11.1217 2.40882 12.0453 2.5234 12.3445C2.7271 12.9299 3.38912 14.0487 5.9481 13.5674C5.9481 14.439 5.96083 15.2585 5.96083 15.5057Z" fill="#777D99"/>
</svg>
