<svg width="16" height="16" viewBox="0 0 16 16" fill="none" xmlns="http://www.w3.org/2000/svg">
<path d="M3.85979 1.81302C3.85979 2.81432 2.99575 3.62603 1.9299 3.62603C0.864044 3.62603 0 2.81432 0 1.81302C0 0.811715 0.864044 0 1.9299 0C2.99575 0 3.85979 0.811715 3.85979 1.81302Z" fill="#777D99"/>
<path d="M0.263918 4.95868H3.56289V16H0.263918V4.95868Z" fill="#777D99"/>
<path d="M8.87423 4.95868H5.57526V16H8.87423C8.87423 16 8.87423 11.8388 8.87423 9.86235C8.87423 8.67602 9.2775 7.4845 10.8866 7.4845C12.7051 7.4845 12.6941 9.037 12.6857 10.2397C12.6746 11.8119 12.701 14.4163 12.701 16H16V9.70041C15.9721 6.31648 15.0942 4.75723 12.2062 4.75723C10.4911 4.75723 9.42796 5.53935 8.87423 6.24696V4.95868Z" fill="#777D99"/>
</svg>
