<svg width="24" height="24" viewBox="0 0 24 24" fill="none" xmlns="http://www.w3.org/2000/svg">
<g opacity="0.66">
<path d="M5.5 22C6.88071 22 8 20.8807 8 19.5C8 18.1193 6.88071 17 5.5 17C4.11929 17 3 18.1193 3 19.5C3 20.8807 4.11929 22 5.5 22Z" stroke="#777D99" strokeWidth="2" strokeLinecap="round" strokeLinejoin="round"/>
<path d="M13 14C14.1046 14 15 13.1046 15 12C15 10.8954 14.1046 10 13 10C11.8954 10 11 10.8954 11 12C11 13.1046 11.8954 14 13 14Z" stroke="#777D99" strokeWidth="2" strokeLinecap="round" strokeLinejoin="round"/>
<path d="M18.5 7C19.8807 7 21 5.88071 21 4.5C21 3.11929 19.8807 2 18.5 2C17.1193 2 16 3.11929 16 4.5C16 5.88071 17.1193 7 18.5 7Z" stroke="#777D99" strokeWidth="2" strokeLinecap="round" strokeLinejoin="round"/>
<path d="M13 19H16.5C17.4283 19 18.3185 18.6313 18.9749 17.9749C19.6313 17.3185 20 16.4283 20 15.5C20 14.5717 19.6313 13.6815 18.9749 13.0251C18.3185 12.3687 17.4283 12 16.5 12H8.5C7.57174 12 6.6815 11.6313 6.02513 10.9749C5.36875 10.3185 5 9.42826 5 8.5C5 7.57174 5.36875 6.6815 6.02513 6.02513C6.6815 5.36875 7.57174 5 8.5 5H11" stroke="#777D99" strokeWidth="2" strokeLinecap="round" strokeLinejoin="round"/>
</g>
</svg>
