<svg width="16" height="16" viewBox="0 0 16 16" fill="none" xmlns="http://www.w3.org/2000/svg">
<path d="M4.50936 14.9946C5.82288 15.0379 7.13189 14.8214 8.35903 14.358C9.58616 13.8945 10.7065 13.1936 11.6539 12.2964C12.6012 11.3993 13.3564 10.3243 13.8747 9.13485C14.393 7.94542 14.664 6.66574 14.6715 5.37143C15.2735 4.6378 15.7205 3.79308 15.9862 2.8869C16.0061 2.81531 16.0045 2.73959 15.9816 2.66887C15.9588 2.59815 15.9156 2.53544 15.8574 2.4883C15.7992 2.44115 15.7285 2.41158 15.6536 2.40314C15.5787 2.3947 15.503 2.40776 15.4355 2.44074C15.1205 2.59003 14.766 2.63825 14.4218 2.57861C14.0776 2.51898 13.761 2.35448 13.5167 2.1083C13.2049 1.77199 12.8277 1.50075 12.4075 1.31065C11.9872 1.12055 11.5325 1.01545 11.0703 1.00158C10.6081 0.98771 10.1477 1.06535 9.71653 1.22991C9.28533 1.39447 8.89206 1.64259 8.56001 1.95958C8.10538 2.3932 7.77237 2.93527 7.59337 3.53312C7.41437 4.13096 7.39545 4.76425 7.53847 5.37143C4.56265 5.54639 2.51956 4.15541 0.885085 2.24827C0.835983 2.19351 0.771751 2.15401 0.700232 2.13461C0.628714 2.1152 0.553006 2.11672 0.482352 2.13899C0.411698 2.16125 0.349156 2.2033 0.302365 2.25999C0.255573 2.31668 0.226557 2.38557 0.218859 2.45823C-0.0925177 4.15928 0.132098 5.91343 0.862539 7.48508C1.59298 9.05674 2.79426 10.3706 4.30505 11.2503C3.29206 12.3944 1.86951 13.109 0.334338 13.2449C0.252092 13.2584 0.176169 13.2968 0.117194 13.3548C0.0582195 13.4128 0.019145 13.4876 0.00543921 13.5686C-0.00826661 13.6496 0.00408235 13.7327 0.0407578 13.8065C0.0774332 13.8802 0.136599 13.9408 0.209976 13.9798C1.54556 14.6371 3.01633 14.9843 4.50936 14.9946Z" fill="#777D99"/>
</svg>
